<svg width="67" height="67" viewBox="0 0 67 67" fill="none" xmlns="http://www.w3.org/2000/svg">
<path d="M43.9282 35.5938H22.8599V31.4062H43.9282V12.0391C43.9282 11.6226 43.7628 11.2232 43.4683 10.9287C43.1738 10.6342 42.7744 10.4688 42.3579 10.4688H5.71728C5.30081 10.4688 4.9014 10.6342 4.60691 10.9287C4.31242 11.2232 4.14697 11.6226 4.14697 12.0391V54.9609C4.14697 55.3774 4.31242 55.7768 4.60691 56.0713C4.9014 56.3658 5.30081 56.5312 5.71728 56.5312H42.3579C42.7744 56.5312 43.1738 56.3658 43.4683 56.0713C43.7628 55.7768 43.9282 55.3774 43.9282 54.9609V35.5938ZM54.838 35.5938L46.463 43.9688L49.4243 46.9301L62.8531 33.5L49.4243 20.0699L46.463 23.0312L54.838 31.4062H43.9282V35.5938H54.838Z" fill="#A30B31"/>
</svg>
