<svg width="45" height="77" viewBox="0 0 45 77" fill="none" xmlns="http://www.w3.org/2000/svg">
<mask id="path-2-outside-1_802_3727" maskUnits="userSpaceOnUse" x="4" y="23" width="37" height="35" fill="black">
<rect fill="white" x="4" y="23" width="37" height="35"/>
<path d="M19.125 26.25L26.375 25.9375C26.0417 26.9375 25.7708 27.8542 25.5625 28.6875C25.3958 29.4792 25.2708 30.1667 25.1875 30.75C25.0625 31.4583 25 32.0833 25 32.625V34.4375C25 35.0208 24.9792 35.6667 24.9375 36.375C24.8958 37.0833 24.8542 37.8542 24.8125 38.6875C26.3125 38.6458 27.5833 38.6042 28.625 38.5625C29.7083 38.5208 30.6042 38.5 31.3125 38.5H33.3125C33.8125 38.5 34.3125 38.4792 34.8125 38.4375C35.2708 38.3958 35.75 38.3542 36.25 38.3125C36.7917 38.2292 37.3125 38.1042 37.8125 37.9375L38.0625 43.25C37.1458 43.1667 36.3125 43.125 35.5625 43.125C34.8542 43.125 34.2292 43.1042 33.6875 43.0625C33.0625 43.0625 32.5 43.0417 32 43H30.125C29.5 43 28.7292 43.0208 27.8125 43.0625C26.9375 43.1042 25.8958 43.1458 24.6875 43.1875C24.6042 43.8958 24.5417 44.5625 24.5 45.1875C24.5 45.8125 24.5208 46.375 24.5625 46.875C24.5625 47.4583 24.6042 48 24.6875 48.5C24.7292 49.0417 24.8125 49.6667 24.9375 50.375C25.0208 51 25.125 51.75 25.25 52.625C25.4167 53.5 25.6042 54.5417 25.8125 55.75H19C19.1667 54.625 19.2917 53.625 19.375 52.75C19.5 51.8333 19.6042 51.0833 19.6875 50.5C19.7708 49.7917 19.8333 49.1667 19.875 48.625C19.9167 47.9583 19.9583 47.2917 20 46.625C20.0417 46.0417 20.0625 45.4375 20.0625 44.8125C20.0625 44.1458 20.0417 43.5208 20 42.9375C18.9583 42.8958 18.0208 42.8958 17.1875 42.9375C16.3958 42.9375 15.7083 42.9583 15.125 43C14.4583 43.0417 13.875 43.0833 13.375 43.125C12.875 43.2083 12.3125 43.2708 11.6875 43.3125C11.1458 43.3958 10.5 43.4583 9.75 43.5C9 43.5 8.1875 43.5417 7.3125 43.625L6.875 38.5C8 38.5833 8.97917 38.6458 9.8125 38.6875C10.6875 38.7292 11.4167 38.75 12 38.75H13.6875H15.5625H20.5C20.5 37.6667 20.4792 36.7292 20.4375 35.9375C20.4375 35.1042 20.4167 34.4167 20.375 33.875C20.3333 33.25 20.2917 32.75 20.25 32.375C20.2083 31.9583 20.125 31.4583 20 30.875C19.9167 30.375 19.7917 29.75 19.625 29C19.5 28.2083 19.3333 27.2917 19.125 26.25Z"/>
</mask>
<path d="M19.125 26.25L26.375 25.9375C26.0417 26.9375 25.7708 27.8542 25.5625 28.6875C25.3958 29.4792 25.2708 30.1667 25.1875 30.75C25.0625 31.4583 25 32.0833 25 32.625V34.4375C25 35.0208 24.9792 35.6667 24.9375 36.375C24.8958 37.0833 24.8542 37.8542 24.8125 38.6875C26.3125 38.6458 27.5833 38.6042 28.625 38.5625C29.7083 38.5208 30.6042 38.5 31.3125 38.5H33.3125C33.8125 38.5 34.3125 38.4792 34.8125 38.4375C35.2708 38.3958 35.75 38.3542 36.25 38.3125C36.7917 38.2292 37.3125 38.1042 37.8125 37.9375L38.0625 43.25C37.1458 43.1667 36.3125 43.125 35.5625 43.125C34.8542 43.125 34.2292 43.1042 33.6875 43.0625C33.0625 43.0625 32.5 43.0417 32 43H30.125C29.5 43 28.7292 43.0208 27.8125 43.0625C26.9375 43.1042 25.8958 43.1458 24.6875 43.1875C24.6042 43.8958 24.5417 44.5625 24.5 45.1875C24.5 45.8125 24.5208 46.375 24.5625 46.875C24.5625 47.4583 24.6042 48 24.6875 48.5C24.7292 49.0417 24.8125 49.6667 24.9375 50.375C25.0208 51 25.125 51.75 25.25 52.625C25.4167 53.5 25.6042 54.5417 25.8125 55.75H19C19.1667 54.625 19.2917 53.625 19.375 52.75C19.5 51.8333 19.6042 51.0833 19.6875 50.5C19.7708 49.7917 19.8333 49.1667 19.875 48.625C19.9167 47.9583 19.9583 47.2917 20 46.625C20.0417 46.0417 20.0625 45.4375 20.0625 44.8125C20.0625 44.1458 20.0417 43.5208 20 42.9375C18.9583 42.8958 18.0208 42.8958 17.1875 42.9375C16.3958 42.9375 15.7083 42.9583 15.125 43C14.4583 43.0417 13.875 43.0833 13.375 43.125C12.875 43.2083 12.3125 43.2708 11.6875 43.3125C11.1458 43.3958 10.5 43.4583 9.75 43.5C9 43.5 8.1875 43.5417 7.3125 43.625L6.875 38.5C8 38.5833 8.97917 38.6458 9.8125 38.6875C10.6875 38.7292 11.4167 38.75 12 38.75H13.6875H15.5625H20.5C20.5 37.6667 20.4792 36.7292 20.4375 35.9375C20.4375 35.1042 20.4167 34.4167 20.375 33.875C20.3333 33.25 20.2917 32.75 20.25 32.375C20.2083 31.9583 20.125 31.4583 20 30.875C19.9167 30.375 19.7917 29.75 19.625 29C19.5 28.2083 19.3333 27.2917 19.125 26.25Z" fill="#59FF47"/>
<path d="M19.125 26.25L19.0389 24.2519L16.7059 24.3524L17.1638 26.6422L19.125 26.25ZM26.375 25.9375L28.2724 26.57L29.1909 23.8143L26.2889 23.9394L26.375 25.9375ZM25.5625 28.6875L23.6222 28.2024L23.6131 28.2388L23.6054 28.2755L25.5625 28.6875ZM25.1875 30.75L27.1571 31.0976L27.1628 31.0653L27.1674 31.0328L25.1875 30.75ZM24.8125 38.6875L22.815 38.5876L22.707 40.7468L24.868 40.6867L24.8125 38.6875ZM28.625 38.5625L28.5481 36.564L28.5451 36.5641L28.625 38.5625ZM34.8125 38.4375L34.9786 40.4306L34.9861 40.43L34.9936 40.4293L34.8125 38.4375ZM36.25 38.3125L36.4161 40.3056L36.4854 40.2998L36.5541 40.2892L36.25 38.3125ZM37.8125 37.9375L39.8103 37.8435L39.6861 35.2048L37.18 36.0401L37.8125 37.9375ZM38.0625 43.25L37.8814 45.2418L40.1682 45.4497L40.0603 43.156L38.0625 43.25ZM33.6875 43.0625L33.8409 41.0684L33.7643 41.0625H33.6875V43.0625ZM32 43L32.1661 41.0069L32.0832 41H32V43ZM27.8125 43.0625L27.7217 41.0646L27.7174 41.0648L27.8125 43.0625ZM24.6875 43.1875L24.6186 41.1887L22.9019 41.2479L22.7012 42.9538L24.6875 43.1875ZM24.5 45.1875L22.5044 45.0545L22.5 45.1209V45.1875H24.5ZM24.5625 46.875H26.5625V46.7918L26.5556 46.7089L24.5625 46.875ZM24.6875 48.5L26.6816 48.3466L26.6748 48.2584L26.6603 48.1712L24.6875 48.5ZM24.9375 50.375L26.92 50.1107L26.9144 50.0689L26.9071 50.0274L24.9375 50.375ZM25.25 52.625L23.2701 52.9078L23.2767 52.9537L23.2853 52.9992L25.25 52.625ZM25.8125 55.75V57.75H28.1868L27.7834 55.4102L25.8125 55.75ZM19 55.75L17.0216 55.4569L16.6819 57.75H19V55.75ZM19.375 52.75L17.3933 52.4798L17.3879 52.52L17.384 52.5604L19.375 52.75ZM19.6875 50.5L21.6674 50.7828L21.6709 50.7583L21.6738 50.7337L19.6875 50.5ZM19.875 48.625L21.8691 48.7784L21.8702 48.7641L21.8711 48.7498L19.875 48.625ZM20 46.625L18.0051 46.4825L18.0044 46.4914L18.0039 46.5002L20 46.625ZM20 42.9375L21.9949 42.795L21.8675 41.0106L20.0799 40.9391L20 42.9375ZM17.1875 42.9375V44.9375H17.2375L17.2874 44.935L17.1875 42.9375ZM15.125 43L15.2498 44.9961L15.2586 44.9956L15.2675 44.9949L15.125 43ZM13.375 43.125L13.2089 41.1319L13.1271 41.1387L13.0462 41.1522L13.375 43.125ZM11.6875 43.3125L11.5545 41.3169L11.4685 41.3227L11.3834 41.3358L11.6875 43.3125ZM9.75 43.5V45.5H9.80551L9.86094 45.4969L9.75 43.5ZM7.3125 43.625L5.31975 43.7951L5.49153 45.8075L7.50212 45.616L7.3125 43.625ZM6.875 38.5L7.02274 36.5055L4.68266 36.3321L4.88225 38.6701L6.875 38.5ZM9.8125 38.6875L9.71262 40.685L9.71737 40.6852L9.8125 38.6875ZM20.5 38.75V40.75H22.5V38.75H20.5ZM20.4375 35.9375H18.4375V35.9901L18.4403 36.0426L20.4375 35.9375ZM20.375 33.875L18.3794 34.008L18.3801 34.0182L18.3809 34.0284L20.375 33.875ZM20.25 32.375L18.2599 32.574L18.261 32.5849L18.2622 32.5959L20.25 32.375ZM20 30.875L18.0272 31.2038L18.0348 31.2491L18.0444 31.2941L20 30.875ZM19.625 29L17.6495 29.3119L17.6592 29.3733L17.6726 29.4339L19.625 29ZM19.125 26.25L19.2111 28.2481L26.4611 27.9356L26.375 25.9375L26.2889 23.9394L19.0389 24.2519L19.125 26.25ZM26.375 25.9375L24.4776 25.305C24.1316 26.3432 23.8454 27.3098 23.6222 28.2024L25.5625 28.6875L27.5028 29.1726C27.6963 28.3985 27.9517 27.5318 28.2724 26.57L26.375 25.9375ZM25.5625 28.6875L23.6054 28.2755C23.4328 29.0954 23.2989 29.828 23.2076 30.4672L25.1875 30.75L27.1674 31.0328C27.2428 30.5054 27.3589 29.8629 27.5196 29.0995L25.5625 28.6875ZM25.1875 30.75L23.2179 30.4024C23.0788 31.1907 23 31.9361 23 32.625H25H27C27 32.2305 27.0462 31.726 27.1571 31.0976L25.1875 30.75ZM25 32.625H23V34.4375H25H27V32.625H25ZM25 34.4375H23C23 34.9744 22.9808 35.5803 22.941 36.2576L24.9375 36.375L26.934 36.4924C26.9775 35.753 27 35.0673 27 34.4375H25ZM24.9375 36.375L22.941 36.2576C22.8989 36.9727 22.8569 37.7494 22.815 38.5876L24.8125 38.6875L26.81 38.7874C26.8514 37.9589 26.8928 37.194 26.934 36.4924L24.9375 36.375ZM24.8125 38.6875L24.868 40.6867C26.373 40.6449 27.6525 40.603 28.7049 40.5609L28.625 38.5625L28.5451 36.5641C27.5142 36.6053 26.252 36.6467 24.757 36.6883L24.8125 38.6875ZM28.625 38.5625L28.7019 40.561C29.7715 40.5199 30.6394 40.5 31.3125 40.5V38.5V36.5C30.5689 36.5 29.6452 36.5218 28.5481 36.564L28.625 38.5625ZM31.3125 38.5V40.5H33.3125V38.5V36.5H31.3125V38.5ZM33.3125 38.5V40.5C33.8681 40.5 34.4235 40.4768 34.9786 40.4306L34.8125 38.4375L34.6464 36.4444C34.2015 36.4815 33.7569 36.5 33.3125 36.5V38.5ZM34.8125 38.4375L34.9936 40.4293C35.4465 40.3881 35.9206 40.3469 36.4161 40.3056L36.25 38.3125L36.0839 36.3194C35.5794 36.3615 35.0952 36.4036 34.6314 36.4457L34.8125 38.4375ZM36.25 38.3125L36.5541 40.2892C37.2029 40.1894 37.8338 40.0386 38.445 39.8349L37.8125 37.9375L37.18 36.0401C36.7912 36.1697 36.3805 36.2689 35.9459 36.3358L36.25 38.3125ZM37.8125 37.9375L35.8147 38.0315L36.0647 43.344L38.0625 43.25L40.0603 43.156L39.8103 37.8435L37.8125 37.9375ZM38.0625 43.25L38.2436 41.2582C37.2796 41.1706 36.3847 41.125 35.5625 41.125V43.125V45.125C36.2403 45.125 37.012 45.1628 37.8814 45.2418L38.0625 43.25ZM35.5625 43.125V41.125C34.8909 41.125 34.3189 41.1052 33.8409 41.0684L33.6875 43.0625L33.5341 45.0566C34.1394 45.1032 34.8174 45.125 35.5625 45.125V43.125ZM33.6875 43.0625V41.0625C33.1051 41.0625 32.5994 41.043 32.1661 41.0069L32 43L31.8339 44.9931C32.4006 45.0403 33.0199 45.0625 33.6875 45.0625V43.0625ZM32 43V41H30.125V43V45H32V43ZM30.125 43V41C29.4593 41 28.656 41.0221 27.7217 41.0646L27.8125 43.0625L27.9033 45.0604C28.8023 45.0196 29.5407 45 30.125 45V43ZM27.8125 43.0625L27.7174 41.0648C26.8537 41.1059 25.8212 41.1472 24.6186 41.1887L24.6875 43.1875L24.7564 45.1863C25.9705 45.1444 27.0213 45.1024 27.9076 45.0602L27.8125 43.0625ZM24.6875 43.1875L22.7012 42.9538C22.6145 43.6911 22.5486 44.3916 22.5044 45.0545L24.5 45.1875L26.4956 45.3205C26.5347 44.7334 26.5939 44.1005 26.6738 43.4212L24.6875 43.1875ZM24.5 45.1875H22.5C22.5 45.8551 22.5222 46.4744 22.5694 47.0411L24.5625 46.875L26.5556 46.7089C26.5195 46.2756 26.5 45.7699 26.5 45.1875H24.5ZM24.5625 46.875H22.5625C22.5625 47.5524 22.6108 48.2054 22.7147 48.8288L24.6875 48.5L26.6603 48.1712C26.5975 47.7946 26.5625 47.3642 26.5625 46.875H24.5625ZM24.6875 48.5L22.6934 48.6534C22.7414 49.2771 22.835 49.9692 22.9679 50.7226L24.9375 50.375L26.9071 50.0274C26.79 49.3642 26.717 48.8063 26.6816 48.3466L24.6875 48.5ZM24.9375 50.375L22.955 50.6393C23.0395 51.2724 23.1445 52.0289 23.2701 52.9078L25.25 52.625L27.2299 52.3422C27.1055 51.4711 27.0022 50.7276 26.92 50.1107L24.9375 50.375ZM25.25 52.625L23.2853 52.9992C23.4492 53.8594 23.6346 54.889 23.8416 56.0898L25.8125 55.75L27.7834 55.4102C27.5738 54.1943 27.3842 53.1406 27.2147 52.2508L25.25 52.625ZM25.8125 55.75V53.75H19V55.75V57.75H25.8125V55.75ZM19 55.75L20.9784 56.0431C21.1488 54.8931 21.2786 53.8575 21.366 52.9396L19.375 52.75L17.384 52.5604C17.3048 53.3925 17.1846 54.3569 17.0216 55.4569L19 55.75ZM19.375 52.75L21.3567 53.0202C21.4814 52.1057 21.5849 51.3603 21.6674 50.7828L19.6875 50.5L17.7076 50.2172C17.6234 50.8064 17.5186 51.561 17.3933 52.4798L19.375 52.75ZM19.6875 50.5L21.6738 50.7337C21.7594 50.0064 21.8249 49.3536 21.8691 48.7784L19.875 48.625L17.8809 48.4716C17.8418 48.9797 17.7823 49.577 17.7012 50.2663L19.6875 50.5ZM19.875 48.625L21.8711 48.7498C21.8723 48.7312 21.8778 48.6433 21.8789 48.6248C21.8801 48.6062 21.8856 48.5183 21.8867 48.4998C21.8879 48.4812 21.8934 48.3933 21.8945 48.3748C21.8957 48.3562 21.9012 48.2683 21.9024 48.2498C21.9035 48.2312 21.909 48.1433 21.9102 48.1248C21.9113 48.1062 21.9168 48.0183 21.918 47.9998C21.9191 47.9812 21.9246 47.8933 21.9258 47.8748C21.927 47.8562 21.9324 47.7683 21.9336 47.7498C21.9338 47.7474 21.9339 47.7443 21.9341 47.7419C21.9342 47.7396 21.9344 47.7364 21.9346 47.7341C21.9347 47.7318 21.9349 47.7286 21.9351 47.7263C21.9352 47.724 21.9354 47.7208 21.9356 47.7185C21.9358 47.7139 21.9372 47.6919 21.9375 47.6873C21.939 47.6632 21.9399 47.6488 21.9414 47.6248C21.9429 47.6007 21.9438 47.5863 21.9453 47.5623C21.9468 47.5382 21.9477 47.5238 21.9492 47.4998C21.9507 47.4757 21.9516 47.4613 21.9531 47.4373C21.9546 47.4132 21.9555 47.3988 21.957 47.3748C21.9585 47.3507 21.9594 47.3363 21.9609 47.3123C21.9625 47.2882 21.9634 47.2738 21.9649 47.2498C21.9664 47.2257 21.9673 47.2113 21.9688 47.1873C21.9703 47.1632 21.9712 47.1488 21.9727 47.1248C21.9742 47.1007 21.9751 47.0863 21.9766 47.0623C21.9781 47.0382 21.979 47.0238 21.9805 46.9998C21.982 46.9757 21.9829 46.9613 21.9844 46.9373C21.9859 46.9132 21.9868 46.8988 21.9883 46.8748C21.9898 46.8507 21.9907 46.8363 21.9922 46.8123C21.9937 46.7882 21.9946 46.7738 21.9961 46.7498L20 46.625L18.0039 46.5002C18.0027 46.5188 17.9972 46.6067 17.9961 46.6252C17.9949 46.6438 17.9894 46.7317 17.9883 46.7502C17.9871 46.7688 17.9816 46.8567 17.9805 46.8752C17.9793 46.8938 17.9738 46.9817 17.9726 47.0002C17.9715 47.0188 17.966 47.1067 17.9648 47.1252C17.9637 47.1438 17.9582 47.2317 17.957 47.2502C17.9559 47.2688 17.9504 47.3567 17.9492 47.3752C17.948 47.3938 17.9426 47.4817 17.9414 47.5002C17.9331 47.6336 17.9185 47.8669 17.9101 48.0002C17.9018 48.1336 17.8872 48.3669 17.8789 48.5002L19.875 48.625ZM20 46.625L21.9949 46.7675C22.0402 46.1336 22.0625 45.4818 22.0625 44.8125H20.0625H18.0625C18.0625 45.3932 18.0431 45.9497 18.0051 46.4825L20 46.625ZM20.0625 44.8125H22.0625C22.0625 44.1047 22.0404 43.4318 21.9949 42.795L20 42.9375L18.0051 43.08C18.0429 43.6099 18.0625 44.1869 18.0625 44.8125H20.0625ZM20 42.9375L20.0799 40.9391C18.9924 40.8956 17.9934 40.8947 17.0876 40.94L17.1875 42.9375L17.2874 44.935C18.0483 44.897 18.9243 44.8961 19.9201 44.9359L20 42.9375ZM17.1875 42.9375V40.9375C16.3637 40.9375 15.6265 40.9591 14.9825 41.0051L15.125 43L15.2675 44.9949C15.7902 44.9576 16.428 44.9375 17.1875 44.9375V42.9375ZM15.125 43L15.0002 41.0039C14.324 41.0462 13.7263 41.0888 13.2089 41.1319L13.375 43.125L13.5411 45.1181C14.0237 45.0779 14.5927 45.0372 15.2498 44.9961L15.125 43ZM13.375 43.125L13.0462 41.1522C12.624 41.2226 12.1285 41.2787 11.5545 41.3169L11.6875 43.3125L11.8205 45.3081C12.4965 45.263 13.126 45.1941 13.7038 45.0978L13.375 43.125ZM11.6875 43.3125L11.3834 41.3358C10.9242 41.4064 10.3462 41.4638 9.63906 41.5031L9.75 43.5L9.86094 45.4969C10.6538 45.4529 11.3674 45.3853 11.9916 45.2892L11.6875 43.3125ZM9.75 43.5V41.5C8.92704 41.5 8.05052 41.5457 7.12288 41.634L7.3125 43.625L7.50212 45.616C8.32448 45.5377 9.07296 45.5 9.75 45.5V43.5ZM7.3125 43.625L9.30525 43.4549L8.86775 38.3299L6.875 38.5L4.88225 38.6701L5.31975 43.7951L7.3125 43.625ZM6.875 38.5L6.72726 40.4945C7.86307 40.5787 8.8589 40.6423 9.71262 40.685L9.8125 38.6875L9.91238 36.69C9.09943 36.6493 8.13693 36.588 7.02274 36.5055L6.875 38.5ZM9.8125 38.6875L9.71737 40.6852C10.6101 40.7277 11.3735 40.75 12 40.75V38.75V36.75C11.4598 36.75 10.7649 36.7306 9.90763 36.6898L9.8125 38.6875ZM12 38.75V40.75H13.6875V38.75V36.75H12V38.75ZM13.6875 38.75V40.75H15.5625V38.75V36.75H13.6875V38.75ZM15.5625 38.75V40.75H20.5V38.75V36.75H15.5625V38.75ZM20.5 38.75H22.5C22.5 37.6433 22.4788 36.6691 22.4347 35.8324L20.4375 35.9375L18.4403 36.0426C18.4796 36.7893 18.5 37.69 18.5 38.75H20.5ZM20.4375 35.9375H22.4375C22.4375 35.0769 22.4162 34.3336 22.3691 33.7216L20.375 33.875L18.3809 34.0284C18.4172 34.4998 18.4375 35.1315 18.4375 35.9375H20.4375ZM20.375 33.875L22.3706 33.742C22.328 33.104 22.2841 32.5711 22.2378 32.1541L20.25 32.375L18.2622 32.5959C18.2992 32.9289 18.3386 33.396 18.3794 34.008L20.375 33.875ZM20.25 32.375L22.2401 32.176C22.1886 31.6617 22.0902 31.0842 21.9556 30.4559L20 30.875L18.0444 31.2941C18.1598 31.8325 18.228 32.255 18.2599 32.574L20.25 32.375ZM20 30.875L21.9728 30.5462C21.8814 29.998 21.7483 29.3352 21.5774 28.5661L19.625 29L17.6726 29.4339C17.8351 30.1648 17.9519 30.752 18.0272 31.2038L20 30.875ZM19.625 29L21.6005 28.6881C21.4702 27.8625 21.2982 26.9181 21.0862 25.8578L19.125 26.25L17.1638 26.6422C17.3684 27.6652 17.5298 28.5541 17.6495 29.3119L19.625 29Z" fill="black" mask="url(#path-2-outside-1_802_3727)"/>
</svg>
